<?xml version="1.0" encoding="UTF-8" standalone="no"?>
<!DOCTYPE svg PUBLIC "-//W3C//DTD SVG 1.1//EN" "http://www.w3.org/Graphics/SVG/1.1/DTD/svg11.dtd">
<svg version="1.1" xmlns="http://www.w3.org/2000/svg" xmlns:xlink="http://www.w3.org/1999/xlink" preserveAspectRatio="xMidYMid meet" viewBox="0 0 1920 1080" width="1920" height="1080"><defs><path d="M0 0L1920 0L1920 1080L0 1080L0 0Z" id="a14jooF0ft"></path><linearGradient id="gradientc7SjOSvdr" gradientUnits="userSpaceOnUse" x1="960" y1="0" x2="960" y2="1080"><stop style="stop-color: #a5e7aa;stop-opacity: 1" offset="0%"></stop><stop style="stop-color: #010000;stop-opacity: 1" offset="100%"></stop></linearGradient><path d="M360 168.75L1560 168.75L1560 270L360 270L360 168.75Z" id="dct2Ps8dR"></path><path d="M1460 168.75L1560 168.75L1560 270L1460 270L1460 168.75Z" id="g1S7GoXuo9"></path><path d="M1520.53 190L1520.56 190.01L1520.6 190.01L1520.63 190.02L1520.66 190.03L1520.7 190.04L1520.73 190.05L1520.76 190.06L1520.79 190.07L1520.82 190.08L1520.85 190.1L1520.88 190.12L1520.91 190.13L1520.94 190.15L1520.96 190.17L1520.99 190.19L1521.01 190.21L1521.04 190.24L1521.06 190.26L1521.09 190.29L1521.11 190.31L1521.13 190.34L1521.15 190.37L1521.17 190.39L1521.19 190.42L1521.2 190.45L1521.22 190.48L1521.23 190.51L1521.25 190.54L1521.26 190.58L1521.27 190.61L1521.28 190.64L1521.29 190.68L1521.3 190.71L1521.3 190.75L1521.31 190.78L1521.31 190.82L1521.31 190.85L1521.31 190.89L1521.31 208.72L1538.45 208.72L1538.48 208.72L1538.52 208.72L1538.55 208.73L1538.58 208.73L1538.62 208.74L1538.65 208.75L1538.68 208.76L1538.72 208.77L1538.75 208.78L1538.78 208.79L1538.81 208.81L1538.84 208.82L1538.87 208.84L1538.9 208.85L1538.92 208.87L1538.95 208.89L1538.98 208.91L1539 208.94L1539.03 208.96L1539.05 208.98L1539.07 209.01L1539.1 209.03L1539.12 209.06L1539.14 209.09L1539.16 209.11L1539.17 209.14L1539.19 209.17L1539.21 209.2L1539.22 209.23L1539.23 209.27L1539.25 209.3L1539.26 209.33L1539.27 209.36L1539.28 209.4L1539.28 209.43L1539.29 209.47L1539.3 209.5L1539.3 209.54L1539.3 209.58L1539.3 209.61L1539.3 223.88L1539.3 223.91L1539.3 223.95L1539.3 223.98L1539.29 224.02L1539.28 224.06L1539.28 224.09L1539.27 224.12L1539.26 224.16L1539.25 224.19L1539.23 224.22L1539.22 224.25L1539.21 224.29L1539.19 224.32L1539.17 224.35L1539.16 224.37L1539.14 224.4L1539.12 224.43L1539.1 224.46L1539.07 224.48L1539.05 224.51L1539.03 224.53L1539 224.55L1538.98 224.57L1538.95 224.6L1538.92 224.62L1538.9 224.63L1538.87 224.65L1538.84 224.67L1538.81 224.68L1538.78 224.7L1538.75 224.71L1538.72 224.72L1538.68 224.73L1538.65 224.74L1538.62 224.75L1538.58 224.76L1538.55 224.76L1538.52 224.76L1538.48 224.77L1538.45 224.77L1521.31 224.77L1521.31 242.6L1521.31 242.63L1521.31 242.67L1521.31 242.71L1521.3 242.74L1521.3 242.78L1521.29 242.81L1521.28 242.85L1521.27 242.88L1521.26 242.91L1521.25 242.94L1521.23 242.98L1521.22 243.01L1521.2 243.04L1521.19 243.07L1521.17 243.1L1521.15 243.12L1521.13 243.15L1521.11 243.18L1521.09 243.2L1521.06 243.23L1521.04 243.25L1521.01 243.27L1520.99 243.3L1520.96 243.32L1520.94 243.34L1520.91 243.35L1520.88 243.37L1520.85 243.39L1520.82 243.4L1520.79 243.42L1520.76 243.43L1520.73 243.44L1520.7 243.45L1520.66 243.46L1520.63 243.47L1520.6 243.48L1520.56 243.48L1520.53 243.49L1520.49 243.49L1520.46 243.49L1506.75 243.49L1506.72 243.49L1506.68 243.49L1506.65 243.48L1506.61 243.48L1506.58 243.47L1506.55 243.46L1506.51 243.45L1506.48 243.44L1506.45 243.43L1506.42 243.42L1506.39 243.4L1506.36 243.39L1506.33 243.37L1506.3 243.35L1506.27 243.34L1506.25 243.32L1506.22 243.3L1506.19 243.27L1506.17 243.25L1506.15 243.23L1506.12 243.2L1506.1 243.18L1506.08 243.15L1506.06 243.12L1506.04 243.1L1506.02 243.07L1506.01 243.04L1505.99 243.01L1505.98 242.98L1505.96 242.94L1505.95 242.91L1505.94 242.88L1505.93 242.85L1505.92 242.81L1505.91 242.78L1505.91 242.74L1505.9 242.71L1505.9 242.67L1505.9 242.63L1505.9 242.6L1505.9 224.77L1488.76 224.77L1488.73 224.77L1488.69 224.76L1488.66 224.76L1488.62 224.76L1488.59 224.75L1488.56 224.74L1488.53 224.73L1488.49 224.72L1488.46 224.71L1488.43 224.7L1488.4 224.68L1488.37 224.67L1488.34 224.65L1488.31 224.63L1488.28 224.62L1488.26 224.6L1488.23 224.57L1488.21 224.55L1488.18 224.53L1488.16 224.51L1488.14 224.48L1488.11 224.46L1488.09 224.43L1488.07 224.4L1488.05 224.37L1488.04 224.35L1488.02 224.32L1488 224.29L1487.99 224.25L1487.97 224.22L1487.96 224.19L1487.95 224.16L1487.94 224.12L1487.93 224.09L1487.92 224.06L1487.92 224.02L1487.91 223.98L1487.91 223.95L1487.91 223.91L1487.91 223.88L1487.91 209.61L1487.91 209.58L1487.91 209.54L1487.91 209.5L1487.92 209.47L1487.92 209.43L1487.93 209.4L1487.94 209.36L1487.95 209.33L1487.96 209.3L1487.97 209.27L1487.99 209.23L1488 209.2L1488.02 209.17L1488.04 209.14L1488.05 209.11L1488.07 209.09L1488.09 209.06L1488.11 209.03L1488.14 209.01L1488.16 208.98L1488.18 208.96L1488.21 208.94L1488.23 208.91L1488.26 208.89L1488.28 208.87L1488.31 208.85L1488.34 208.84L1488.37 208.82L1488.4 208.81L1488.43 208.79L1488.46 208.78L1488.49 208.77L1488.53 208.76L1488.56 208.75L1488.59 208.74L1488.62 208.73L1488.66 208.73L1488.69 208.72L1488.73 208.72L1488.76 208.72L1505.9 208.72L1505.9 190.89L1505.9 190.85L1505.9 190.82L1505.9 190.78L1505.91 190.75L1505.91 190.71L1505.92 190.68L1505.93 190.64L1505.94 190.61L1505.95 190.58L1505.96 190.54L1505.98 190.51L1505.99 190.48L1506.01 190.45L1506.02 190.42L1506.04 190.39L1506.06 190.37L1506.08 190.34L1506.1 190.31L1506.12 190.29L1506.15 190.26L1506.17 190.24L1506.19 190.21L1506.22 190.19L1506.25 190.17L1506.27 190.15L1506.3 190.13L1506.33 190.12L1506.36 190.1L1506.39 190.08L1506.42 190.07L1506.45 190.06L1506.48 190.05L1506.51 190.04L1506.55 190.03L1506.58 190.02L1506.61 190.01L1506.65 190.01L1506.68 190L1506.72 190L1506.75 190L1520.46 190L1520.49 190L1520.53 190Z" id="b16Deww8Bg"></path><path d="M120 337.5L429.77 337.5L429.77 607.5L120 607.5L120 337.5Z" id="bx93SU5hc"></path><path d="M120 337.5L429.77 337.5L429.77 399.3L120 399.3L120 337.5Z" id="b3F86JPa8G"></path><path d="M409.56 365.58L420 376.76L414.16 383.02L403.72 371.84L393.29 383.02L387.44 376.76L397.88 365.58L387.44 354.4L393.29 348.14L403.72 359.32L414.16 348.14L420 354.4L409.56 365.58Z" id="c3H0GVGZau"></path><path d="M156.47 358.83L170.93 360.92L160.47 371.04L162.94 385.35L150 378.59L137.06 385.35L139.54 371.04L129.07 360.92L143.53 358.83L150 345.81L156.47 358.83Z" id="e1Qx255GLF"></path><path d="M283.8 382.96L283.8 382.96L275.05 392.18L258.84 375.11L267.59 365.89L275.05 373.75L297.29 350.32L306.05 359.54L283.8 382.96Z" id="aurhxt0FY"></path><path d="M550.66 337.5L860.43 337.5L860.43 607.5L550.66 607.5L550.66 337.5Z" id="a13BGrh5Zn"></path><path d="M550.66 337.5L860.43 337.5L860.43 399.3L550.66 399.3L550.66 337.5Z" id="b3RuBZOlzO"></path><path d="M840.23 365.58L850.66 376.76L844.82 383.02L834.38 371.84L823.95 383.02L818.1 376.76L828.54 365.58L818.1 354.4L823.95 348.14L834.38 359.32L844.82 348.14L850.66 354.4L840.23 365.58Z" id="l4nr9d6iia"></path><path d="M587.13 358.83L601.59 360.92L591.13 371.04L593.6 385.35L580.66 378.59L567.73 385.35L570.2 371.04L559.73 360.92L574.2 358.83L580.66 345.81L587.13 358.83Z" id="aKv3Lm0Qw"></path><path d="M714.46 382.96L714.46 382.96L705.71 392.18L689.5 375.11L698.25 365.89L705.71 373.75L727.96 350.32L736.71 359.54L714.46 382.96Z" id="d3s1wzmvz"></path><path d="M980.23 337.5L1290 337.5L1290 607.5L980.23 607.5L980.23 337.5Z" id="a2DR0Lrjq9"></path><path d="M980.23 337.5L1290 337.5L1290 399.3L980.23 399.3L980.23 337.5Z" id="b30D95ArVu"></path><path d="M1269.8 365.58L1280.23 376.76L1274.39 383.02L1263.95 371.84L1253.52 383.02L1247.67 376.76L1258.11 365.58L1247.67 354.4L1253.52 348.14L1263.95 359.32L1274.39 348.14L1280.23 354.4L1269.8 365.58Z" id="diQAPDlKk"></path><path d="M1016.7 358.83L1031.16 360.92L1020.7 371.04L1023.17 385.35L1010.23 378.59L997.3 385.35L999.77 371.04L989.3 360.92L1003.77 358.83L1010.23 345.81L1016.7 358.83Z" id="haxOhuanr"></path><path d="M1144.03 382.96L1144.03 382.96L1135.28 392.18L1119.07 375.11L1127.82 365.89L1135.28 373.75L1157.53 350.32L1166.28 359.54L1144.03 382.96Z" id="a8oe6exQhN"></path><path d="M1435.12 337.5L1744.88 337.5L1744.88 607.5L1435.12 607.5L1435.12 337.5Z" id="brufLCstR"></path><path d="M1435.12 337.5L1744.88 337.5L1744.88 399.3L1435.12 399.3L1435.12 337.5Z" id="cJK93hcVe"></path><path d="M1724.68 365.58L1735.12 376.76L1729.27 383.02L1718.84 371.84L1708.4 383.02L1702.56 376.76L1712.99 365.58L1702.56 354.4L1708.4 348.14L1718.84 359.32L1729.27 348.14L1735.12 354.4L1724.68 365.58Z" id="c1JxVSKE"></path><path d="M1471.58 358.83L1486.05 360.92L1475.58 371.04L1478.05 385.35L1465.12 378.59L1452.18 385.35L1454.65 371.04L1444.19 360.92L1458.65 358.83L1465.12 345.81L1471.58 358.83Z" id="c4sAVOnfJ"></path><path d="M1598.92 382.96L1598.92 382.96L1590.17 392.18L1573.95 375.11L1582.71 365.89L1590.16 373.75L1612.41 350.32L1621.16 359.54L1598.92 382.96Z" id="aKN5CFzeW"></path><path d="M115.12 675L424.88 675L424.88 945L115.12 945L115.12 675Z" id="imhMdaQTI"></path><path d="M115.12 675L424.88 675L424.88 736.8L115.12 736.8L115.12 675Z" id="amnryWGt7"></path><path d="M404.68 703.08L415.12 714.26L409.27 720.52L398.84 709.34L388.4 720.52L382.56 714.26L392.99 703.08L382.56 691.9L388.4 685.64L398.84 696.82L409.27 685.64L415.12 691.9L404.68 703.08Z" id="feDXrzXIM"></path><path d="M151.58 696.33L166.05 698.42L155.58 708.54L158.05 722.85L145.12 716.09L132.18 722.85L134.65 708.54L124.19 698.42L138.65 696.33L145.12 683.31L151.58 696.33Z" id="g32IUaEv4S"></path><path d="M278.92 720.46L278.92 720.46L270.17 729.68L253.95 712.61L262.71 703.39L270.16 711.25L292.41 687.82L301.16 697.04L278.92 720.46Z" id="a26MS8qECL"></path></defs><g><g><g><use xlink:href="#a14jooF0ft" opacity="1" fill="url(#gradientc7SjOSvdr)"></use></g><g><use xlink:href="#dct2Ps8dR" opacity="1" fill="#ffffff" fill-opacity="1"></use><g><use xlink:href="#dct2Ps8dR" opacity="1" fill-opacity="0" stroke="#0aa255" stroke-width="6" stroke-opacity="1"></use></g></g><g><use xlink:href="#g1S7GoXuo9" opacity="1" fill="#40a451" fill-opacity="1"></use></g><g><use xlink:href="#b16Deww8Bg" opacity="1" fill="#ffffff" fill-opacity="1"></use></g><g><use xlink:href="#bx93SU5hc" opacity="1" fill="#9cd196" fill-opacity="1"></use></g><g><use xlink:href="#b3F86JPa8G" opacity="1" fill="#349029" fill-opacity="1"></use></g><g><use xlink:href="#c3H0GVGZau" opacity="1" fill="#903329" fill-opacity="1"></use></g><g><use xlink:href="#e1Qx255GLF" opacity="1" fill="#f5f817" fill-opacity="1"></use></g><g><use xlink:href="#aurhxt0FY" opacity="1" fill="#ffb50c" fill-opacity="1"></use></g><g><use xlink:href="#a13BGrh5Zn" opacity="1" fill="#9cd196" fill-opacity="1"></use></g><g><use xlink:href="#b3RuBZOlzO" opacity="1" fill="#349029" fill-opacity="1"></use></g><g><use xlink:href="#l4nr9d6iia" opacity="1" fill="#903329" fill-opacity="1"></use></g><g><use xlink:href="#aKv3Lm0Qw" opacity="1" fill="#f5f817" fill-opacity="1"></use></g><g><use xlink:href="#d3s1wzmvz" opacity="1" fill="#ffb50c" fill-opacity="1"></use></g><g><use xlink:href="#a2DR0Lrjq9" opacity="1" fill="#9cd196" fill-opacity="1"></use></g><g><use xlink:href="#b30D95ArVu" opacity="1" fill="#349029" fill-opacity="1"></use></g><g><use xlink:href="#diQAPDlKk" opacity="1" fill="#903329" fill-opacity="1"></use></g><g><use xlink:href="#haxOhuanr" opacity="1" fill="#f5f817" fill-opacity="1"></use></g><g><use xlink:href="#a8oe6exQhN" opacity="1" fill="#ffb50c" fill-opacity="1"></use></g><g><use xlink:href="#brufLCstR" opacity="1" fill="#9cd196" fill-opacity="1"></use></g><g><use xlink:href="#cJK93hcVe" opacity="1" fill="#349029" fill-opacity="1"></use></g><g><use xlink:href="#c1JxVSKE" opacity="1" fill="#903329" fill-opacity="1"></use></g><g><use xlink:href="#c4sAVOnfJ" opacity="1" fill="#bcbcbc" fill-opacity="1"></use></g><g><use xlink:href="#aKN5CFzeW" opacity="1" fill="#ffb50c" fill-opacity="1"></use></g><g><use xlink:href="#imhMdaQTI" opacity="1" fill="#9cd196" fill-opacity="1"></use></g><g><use xlink:href="#amnryWGt7" opacity="1" fill="#349029" fill-opacity="1"></use></g><g><use xlink:href="#feDXrzXIM" opacity="1" fill="#903329" fill-opacity="1"></use></g><g><use xlink:href="#g32IUaEv4S" opacity="1" fill="#bcbcbc" fill-opacity="1"></use></g><g><use xlink:href="#a26MS8qECL" opacity="1" fill="#ffb50c" fill-opacity="1"></use></g></g></g></svg>